<svg xmlns="http://www.w3.org/2000/svg" viewBox="0 0 240 240" fill="none">
  <g fill="currentColor">
    <circle cx="120" cy="20"  r="4"/>
    <circle cx="120" cy="220" r="4"/>
    <circle cx="20"  cy="120" r="4"/>
    <circle cx="220" cy="120" r="4"/>
    <circle cx="50"  cy="50"  r="4"/>
    <circle cx="190" cy="50"  r="4"/>
    <circle cx="50"  cy="190" r="4"/>
    <circle cx="190" cy="190" r="4"/>
  </g>
  <g stroke="currentColor" stroke-width="2.5" stroke-linecap="round" stroke-linejoin="round">
    <path d="M 120 20  L 120 70"/>
    <path d="M 120 220 L 120 170"/>
    <path d="M 20 120  L 70 120"/>
    <path d="M 220 120 L 170 120"/>
    <path d="M 50 50  L 50 80  L 80 80"/>
    <path d="M 190 50  L 190 80  L 160 80"/>
    <path d="M 50 190  L 50 160  L 80 160"/>
    <path d="M 190 190 L 190 160 L 160 160"/>
  </g>
  <g stroke="currentColor" stroke-width="1.5">
    <circle cx="50"  cy="80"  r="3"/>
    <circle cx="190" cy="80"  r="3"/>
    <circle cx="50"  cy="160" r="3"/>
    <circle cx="190" cy="160" r="3"/>
  </g>
  <polygon points="120,68 165,94 165,146 120,172 75,146 75,94" stroke="currentColor" stroke-width="2.5"/>
  <polygon points="120,76 158,98 158,142 120,164 82,142 82,98" stroke="currentColor" stroke-width="0.6" opacity="0.45"/>
  <g stroke="currentColor" stroke-width="5" stroke-linecap="round" stroke-linejoin="round">
    <path d="M 94 140 L 94 100"/>
    <path d="M 112 140 L 112 100"/>
    <path d="M 94 100 L 112 140"/>
    <path d="M 118 140 L 133 100 L 148 140"/>
    <path d="M 124 124 L 142 124"/>
  </g>
</svg>